<svg data-v-423bf9ae="" xmlns="http://www.w3.org/2000/svg" viewBox="0 0 294.42859351878366 163" class="iconAbove"><!----><!----><!----><g data-v-423bf9ae="" id="0d4e1af8-17d5-4c7b-a240-b1655c74ad5e" fill="black" transform="matrix(4.761905193328857,0,0,4.761905193328857,-3.3809573650360107,85.28571319580078)"><path d="M5.67 8.65L5.67 10.16L7.71 10.16C7.52 11.52 6.64 12.33 5.39 12.33C3.88 12.33 2.76 11.10 2.76 8.69C2.76 6.50 3.88 5.17 5.45 5.17C6.73 5.17 7.46 5.87 7.70 7.06L7.73 7.20L9.66 7.20L9.65 7.06C9.45 5.15 8.09 3.72 5.47 3.72C2.77 3.72 0.71 5.64 0.71 8.81C0.71 11.87 2.41 13.78 5.10 13.78C6.16 13.78 6.90 13.52 7.45 12.99L7.88 12.01L8.01 13.58L9.56 13.58L9.56 8.65ZM14.56 5.94C12.08 5.94 10.70 7.59 10.70 9.86C10.70 12.11 12.08 13.78 14.56 13.78C17.04 13.78 18.42 12.11 18.42 9.86C18.42 7.59 17.04 5.94 14.56 5.94ZM14.56 12.42C13.40 12.42 12.70 11.45 12.70 9.86C12.70 8.25 13.40 7.29 14.56 7.29C15.72 7.29 16.42 8.25 16.42 9.86C16.42 11.45 15.72 12.42 14.56 12.42ZM27.02 12.05L21.98 12.05L21.98 9.51L26.53 9.51L26.53 7.98L21.98 7.98L21.98 5.43L26.88 5.43L26.88 3.92L20.05 3.92L20.05 13.58L27.02 13.58ZM32.34 9.81L34.92 6.13L32.69 6.13L31.22 8.61L29.74 6.13L27.48 6.13L30.02 9.80L27.38 13.58L29.60 13.58L31.16 11.00L32.69 13.58L34.94 13.58ZM40.31 5.94C39.55 5.94 38.79 6.12 38.37 6.45L37.81 7.27L37.81 6.13L35.88 6.13L35.88 16.32L37.81 16.32L37.81 12.59L38.30 13.36C38.68 13.62 39.44 13.78 40.05 13.78C41.97 13.78 43.62 12.40 43.62 9.72C43.62 7.52 42.39 5.94 40.31 5.94ZM39.68 12.42C38.78 12.42 37.81 11.82 37.81 10.12L37.81 9.77C37.81 7.95 38.68 7.29 39.75 7.29C40.89 7.29 41.62 8.32 41.62 9.84C41.62 11.56 40.80 12.42 39.68 12.42ZM48.24 5.94C45.77 5.94 44.38 7.59 44.38 9.86C44.38 12.11 45.77 13.78 48.24 13.78C50.72 13.78 52.11 12.11 52.11 9.86C52.11 7.59 50.72 5.94 48.24 5.94ZM48.24 12.42C47.08 12.42 46.38 11.45 46.38 9.86C46.38 8.25 47.08 7.29 48.24 7.29C49.41 7.29 50.11 8.25 50.11 9.86C50.11 11.45 49.41 12.42 48.24 12.42ZM57.16 5.95C56.74 5.95 56.25 6.12 55.89 6.45L55.30 7.49L55.30 6.13L53.37 6.13L53.37 13.58L55.30 13.58L55.30 10.16C55.30 8.16 56.10 7.45 57.71 7.56L57.71 6.01C57.54 5.96 57.39 5.95 57.16 5.95ZM61.00 7.46L62.54 7.46L62.54 6.19L61.00 6.19L61.00 4.35L59.07 4.35L59.07 6.19L57.97 6.19L57.97 7.46L59.07 7.46L59.07 11.13C59.07 11.55 59.07 11.87 59.09 12.21C59.18 13.26 59.70 13.73 61.14 13.73C61.57 13.73 61.98 13.71 62.41 13.64L62.41 12.38C61.33 12.46 61.07 12.29 61.01 11.56C61.00 11.37 61.00 11.16 61.00 10.91Z"></path></g><!----><g data-v-423bf9ae="" id="27875408-1ae6-4c8d-a0fe-2176dde0bc98" transform="matrix(1,0,0,1,98,-5)" stroke="none" fill="black"><path d="M77.5 17.5C77.5 10.607 71.893 5 65 5H17.5C10.607 5 5 10.607 5 17.5V25h17.5v57.5C22.5 89.393 28.107 95 35 95h47.5C89.393 95 95 89.393 95 82.5V75H77.5V17.5zm-65 0c0-2.757 2.243-5 5-5s5 2.243 5 5h-10zm75 65c0 2.757-2.243 5-5 5H46.456a12.436 12.436 0 001.044-5h40zM40 75v7.5c0 2.757-2.243 5-5 5s-5-2.243-5-5v-65c0-1.776-.373-3.468-1.044-5H65c2.757 0 5 2.243 5 5V75H40z"></path><path d="M35 22.5h30v5H35zM35 32.5h30v5H35zM35 42.5h30v5H35zM35 52.5h30v5H35zM35 62.5h30v5H35z"></path></g><!----></svg>